# AST/ASF file generated using VICON BodyLanguage
# -----------------------------------------------
:version 1.10
:name VICON
:units
  mass 1.0
  length 0.45
  angle deg
:documentation
   .ast/.asf automatically generated from VICON data using
   VICON BodyBuilder and BodyLanguage model FoxedUp or BRILLIANT.MOD
:root
   order TX TY TZ RX RY RZ
   axis XYZ
   position 0 0 0  
   orientation 0 -0 0 
:bonedata
  begin
     id 1 
     name lhipjoint
     direction 0.515797 -0.759363 0.396637 
     length 2.47888 
     axis 0 -0 0  XYZ
  end
  begin
     id 2 
     name lfemur
     direction 0.34202 -0.939693 0  
     length 6.81885  
     axis 0 -0 20  XYZ
    dof rx ry rz
    limits (-160.0 20.0)
           (-70.0 70.0)
           (-60.0 70.0)
  end
  begin
     id 3 
     name ltibia
     direction 0.342037 -0.939687 0   
     length 7.89258   
     axis 0 -0 20   XYZ
    dof rx
    limits (-10.0 170.0)
  end
  begin
     id 4 
     name lfoot
     direction 0.173497 -0.476678 0.861787   
     length 2.51543   
     axis -90 -1.13533e-015 20   XYZ
    dof rx rz
    limits (-45.0 90.0)
           (-70.0 20.0)
  end
  begin
     id 5 
     name ltoes
     direction 1.53564e-011 -4.21897e-011 1   
     length 1.21388   
     axis -90 -1.13533e-015 20   XYZ
    dof rx
    limits (-90.0 20.0)
  end
  begin
     id 6 
     name rhipjoint
     direction -0.489454 -0.772941 0.403729   
     length 2.43534  
     axis 0 -0 0  XYZ 
  end
  begin
     id 7 
     name rfemur
     direction -0.34202 -0.939693 0   
     length 7.10357   
     axis 0 -0 -20   XYZ
    dof rx ry rz
    limits (-160.0 20.0)
           (-70.0 70.0)
           (-70.0 60.0)
  end
  begin
     id 8 
     name rtibia
     direction -0.34202 -0.939693 0   
     length 9.16127   
     axis 0 -0 -20   XYZ
    dof rx
    limits (-10.0 170.0)
 end
 begin
     id 9 
     name rfoot
     direction -0.270974 -0.748671 0.605033   
     length 1.74894  
     axis -90 1.13533e-015 -20   XYZ
    dof rx rz
    limits (-45.0 90.0)
           (-20.0 70.0)
  end
  begin
     id 10 
     name rtoes
     direction -1.53557e-011 -4.21759e-011 1   
     length 0.787585   
     axis -90 1.13533e-015 -20   XYZ
    dof rx
    limits (-90.0 20.0)
  end
  begin
     id 11 
     name lowerback
     direction -0.0140249 0.999561 0.0260968   
     length 2.16963   
     axis 0 -0 0   XYZ
    dof rx ry rz
    limits (-20.0 45.0)
           (-30.0 30.0)
           (-30.0 30.0)
  end
  begin
     id 12 
     name upperback
     direction 0.00860018 0.999959 -0.002711   
     length 2.1726   
     axis 0 -0 0   XYZ
    dof rx ry rz
    limits (-20.0 45.0)
           (-30.0 30.0)
           (-30.0 30.0)
  end
  begin
     id 13 
     name thorax
     direction 0.015211 0.999782 -0.0143191   
     length 2.17061   
     axis 0 -0 0   XYZ
    dof rx ry rz
    limits (-20.0 45.0)
           (-30.0 30.0)
           (-30.0 30.0)
  end
  begin
     id 14 
     name lowerneck
     direction -0.0140143 0.999447 0.030145   
     length 2.26749   
     axis 0 -0 0   XYZ
    dof rx ry rz
    limits (-20.0 45.0)
           (-30.0 30.0)
           (-30.0 30.0)
  end
  begin
     id 15 
     name upperneck
     direction 0.118062 0.961438 -0.248392   
     length 2.22728   
     axis 0 -0 0   XYZ
    dof rx ry rz
    limits (-20.0 45.0)
           (-30.0 30.0)
           (-30.0 30.0)
  end
  begin
     id 16
     name head
     direction 0.0431885 0.9954 -0.085514  
     length 2.28786  
     axis 0 -0 0   XYZ
    dof rx ry rz
    limits (-20.0 45.0)
           (-30.0 30.0)
           (-30.0 30.0)
  end
  begin
     id 17 
     name lclavicle
     direction 0.912126 0.409548 0.0172323  
     length 4.31571  
     axis 0 -0 0   XYZ
    dof ry rz
    limits (-20.0 10.0)
           (0.0 20.0)
  end
  begin
     id 18 
     name lhumerus
     direction 1 -4.48977e-011 1.93091e-027   
     length 5.13658   
     axis 180 -30 -90   XYZ
    dof rx ry rz
    limits (-60.0 90.0)
           (-90.0 90.0)
           (-90.0 90.0)
  end
  begin
     id 19
     name lradius
     direction 1 -4.48916e-011 6.84018e-027   
     length 3.22473   
     axis 180 -30 -90   XYZ
    dof rx
    limits (-10.0 170.0)
  end
  begin
     id 20
     name lwrist
     direction 1 -4.48987e-011 7.01981e-027   
     length 1.61236   
     axis -4.37994e-015 90 90   XYZ
    dof ry
    limits (-180.0 0.0)
 end
  begin
     id 21 
     name lhand
     direction 1 -4.49037e-011 1.40335e-026   
     length 0.936406   
     axis -8.96029e-015 90 90   XYZ
    dof rx rz
    limits (-90.0 90.0)
           (-45.0 45.0)
  end
  begin
     id 22 
     name lfingers
     direction 1 -4.48886e-011 2.8104e-026   
     length 0.754955   
     axis -1.79203e-014 90 90   XYZ
    dof rx
    limits (0.0 90.0)
  end
  begin
     id 23
     name lthumb
     direction 0.707107 -6.34937e-011 0.707107   
     length 1.08397   
     axis -90 45 -4.48555e-014   XYZ
    dof rx rz
    limits (-45.0 45.0)
           (-45.0 45.0)
  end
  begin
     id 24 
     name rclavicle
     direction -0.947962 0.317997 0.0156638   
     length 4.86918  
     axis 0 -0 0   XYZ 
    dof ry rz
    limits (-10.0 20.0)
           (-20.0 0.0)
  end
  begin
     id 25 
     name rhumerus
     direction -1 -4.48951e-011 2.80534e-018  
     length 5.60911   
     axis 180 30 90   XYZ
    dof rx ry rz
    limits (-90.0 60.0)
           (-90.0 90.0)
           (-90.0 90.0)
  end
  begin
     id 26 
     name rradius
     direction -1 -4.4898e-011 2.11315e-027   
     length 3.38704   
     axis 180 30 90   XYZ
    dof rx
    limits (-10.0 170.0)
  end
  begin
     id 27 
     name rwrist
     direction -1 -4.48933e-011 7.02314e-027   
     length 1.69352   
     axis -4.37994e-015 -90 -90   XYZ
    dof ry
    limits (-180.0 0.0)
  end
  begin
     id 28
     name rhand
     direction -1 -4.48937e-011 1.40458e-026   
     length 0.755878   
     axis -8.96029e-015 -90 -90   XYZ
    dof rx rz
    limits (-90.0 90.0)
           (-45.0 45.0)
  end
  begin
     id 29
     name rfingers
     direction -1 -4.4901e-011 2.80737e-026   
     length 0.609409   
     axis -1.79203e-014 -90 -90   XYZ
    dof rx
    limits (0.0 90.0)
  end
  begin
     id 30
     name rthumb
     direction -0.707107 -6.34968e-011 0.707107   
     length 0.874992   
     axis -90 -45 4.48555e-014   XYZ
    dof rx rz
    limits (-45.0 45.0)
           (-45.0 45.0)
  end
:hierarchy
  begin
    root lhipjoint rhipjoint lowerback
    lhipjoint lfemur
    lfemur ltibia
    ltibia lfoot
    lfoot ltoes
    rhipjoint rfemur
    rfemur rtibia
    rtibia rfoot
    rfoot rtoes
    lowerback upperback
    upperback thorax
    thorax lowerneck lclavicle rclavicle
    lowerneck upperneck
    upperneck head
    lclavicle lhumerus
    lhumerus lradius
    lradius lwrist
    lwrist lhand lthumb
    lhand lfingers
    rclavicle rhumerus
    rhumerus rradius
    rradius rwrist
    rwrist rhand rthumb
    rhand rfingers
  end

#!OML:ASF C:\ViconDB\ViconDB\414\Spring2016\041811\Spring2016.ASF
:FULLY-SPECIFIED
:DEGREES
124
root 6.59444 17.2347 -0.214598 -176.683 7.56999 -173.784
lowerback 10.8177 3.26011 1.21978
upperback 1.28616 4.93874 3.74432
thorax -4.94551 2.56179 2.47654
lowerneck -16.1294 -4.5676 -11.7923
upperneck 14.7952 -7.08288 16.6297
head 8.29363 -2.74526 6.73696
rclavicle -6.67916e-014 -1.78906e-014
rhumerus -35.4966 6.42158 -99.712
rradius 117.874
rwrist 2.20914
rhand -32.5814 -12.9515
rfingers 7.12502
rthumb -5.81005 -42.8519
lclavicle -6.67916e-014 -1.78906e-014
lhumerus -85.5691 -20.9677 104.834
lradius 75.0534
lwrist -14.5882
lhand -33.2937 8.13382
lfingers 7.12502
lthumb -6.49779 38.0141
rfemur 3.77187 -10.0008 26.8615
rtibia 36.1479
rfoot -164.647 18.9512
rtoes -8.38759
lfemur -43.8447 9.46222 -8.26075
ltibia 97.8667
lfoot -1.44462 -0.728987
ltoes -5.4498
125
root 6.58419 17.3505 -0.760773 -176.328 7.07957 -173.93
lowerback 9.74546 3.57526 1.24444
upperback 1.10367 5.27763 3.46503
thorax -4.52298 2.71333 2.18437
lowerneck -15.7787 -4.81362 -11.8175
upperneck 14.7258 -7.57665 17.0476
head 8.30731 -2.97782 6.82292
rclavicle 3.45885e-014 -5.00937e-014
rhumerus -34.7931 8.10305 -99.7795
rradius 121.196
rwrist 2.12785
rhand -33.6462 -12.3257
rfingers 7.12502
rthumb -6.83803 -42.1952
lclavicle 3.45885e-014 -5.00937e-014
lhumerus -88.371 -21.9631 105.278
lradius 76.8237
lwrist -13.7132
lhand -32.928 7.51293
lfingers 7.12502
lthumb -6.1447 37.4038
rfemur 6.58748 -9.71868 26.3451
rtibia 33.3956
rfoot -163.186 16.9612
rtoes -7.84239
lfemur -45.9996 8.27767 -8.83278
ltibia 94.9237
lfoot -3.03115 0.189626
ltoes -5.54145
126
root 6.57524 17.4692 -1.31487 -175.9 6.39438 -173.943
lowerback 8.70212 3.71982 1.27626
upperback 0.827217 5.4059 3.26687
thorax -4.21099 2.76371 2.00567
lowerneck -15.614 -4.99199 -11.9965
upperneck 14.9437 -7.99256 17.5533
head 8.44951 -3.16632 6.98734
rclavicle 2.21148e-014 8.34896e-015
rhumerus -34.4454 9.93055 -99.7666
rradius 124.15
rwrist 2.33193
rhand -33.5415 -11.884
rfingers 7.12502
rthumb -6.73694 -41.7569
lclavicle 2.21148e-014 8.34896e-015
lhumerus -91.0876 -22.4054 105.636
lradius 78.6293
lwrist -12.6845
lhand -33.0288 7.5324
lfingers 7.12502
lthumb -6.242 37.4204
rfemur 9.18654 -9.7565 25.9515
rtibia 30.7265
rfoot -161.281 14.6213
rtoes -7.09795
lfemur -47.804 6.92875 -9.12177
ltibia 91.2591
lfoot -4.4107 0.472733
ltoes -5.75713
127
root 6.5676 17.6008 -1.88935 -175.424 5.68465 -174.256
lowerback 7.35486 3.80761 0.8973
upperback 0.601954 5.40892 3.03173
thorax -3.70354 2.75851 2.05911
lowerneck -15.5642 -5.18438 -12.2971
upperneck 15.2221 -8.41013 18.099
head 8.64472 -3.35288 7.19066
rclavicle 2.90723e-014 -3.18055e-015
rhumerus -34.3655 12.0815 -99.5693
rradius 126.862
rwrist 2.45122
rhand -33.7687 -10.6597
rfingers 7.12502
rthumb -6.95629 -40.5254
lclavicle 2.90723e-014 -3.18055e-015
lhumerus -93.298 -22.7166 105.744
lradius 80.3333
lwrist -11.7266
lhand -33.1732 8.01946
lfingers 7.12502
lthumb -6.38141 37.9033
rfemur 11.5414 -10.0442 25.1756
rtibia 28.2918
rfoot -158.583 12.0624
rtoes -8.77154
lfemur -49.1857 5.55823 -9.74658
ltibia 87.049
lfoot -5.80323 0.318035
ltoes -5.51525
128
root 6.55794 17.7485 -2.48011 -175.021 4.88344 -174.5
lowerback 5.79635 3.82744 0.616215
upperback 0.536458 5.34527 2.8357
thorax -2.90407 2.7227 2.129
lowerneck -15.7716 -5.33698 -12.209
upperneck 15.6514 -8.71036 18.0713
head 8.87301 -3.48006 7.13435
rclavicle -3.77691e-015 8.74653e-015
rhumerus -34.4285 14.4408 -99.2499
rradius 129.163
rwrist 3.98131
rhand -34.3234 -10.6688
rfingers 7.12502
rthumb -7.49168 -40.5162
lclavicle -3.77691e-015 8.74653e-015
lhumerus -94.8013 -22.7062 105.617
lradius 81.8006
lwrist -10.6717
lhand -33.581 8.14141
lfingers 7.12502
lthumb -6.77507 38.013
rfemur 13.6737 -10.7723 24.3098
rtibia 26.2089
rfoot -155.228 9.15404
rtoes -11.173
lfemur -49.9589 4.09099 -10.2171
ltibia 82.27
lfoot -7.30015 -0.296176
ltoes -5.82198
129
root 6.54412 17.905 -3.07519 -174.729 3.99722 -174.863
lowerback 4.6759 3.85412 0.1116
upperback 0.300598 5.31095 2.72902
thorax -2.55485 2.70408 2.37305
lowerneck -15.9871 -5.6295 -12.2736
upperneck 16.3888 -9.14831 17.7724
head 9.22233 -3.69288 6.99422
rclavicle 1.14798e-014 -2.90226e-014
rhumerus -35.0262 16.6389 -98.7375
rradius 131.335
rwrist 5.00952
rhand -34.4682 -10.6278
rfingers 7.12502
rthumb -7.63153 -40.4701
lclavicle 1.14798e-014 -2.90226e-014
lhumerus -96.0604 -22.5937 105.746
lradius 83.0779
lwrist -9.96092
lhand -34.0423 8.80909
lfingers 7.12502
lthumb -7.22041 38.6659
rfemur 15.5932 -11.7301 23.2923
rtibia 24.4475
rfoot -151.518 5.54496
rtoes -14.6039
lfemur -50.1083 2.56607 -10.7916
ltibia 76.9493
lfoot -8.681 -0.967668
ltoes -6.35388
130
root 6.53043 18.0683 -3.66766 -174.602 3.09622 -175.307
lowerback 3.60221 3.77378 0.0134388
upperback 0.265715 5.14212 2.24203
thorax -1.94599 2.60495 2.01671
lowerneck -16.3313 -5.90992 -12.1353
upperneck 16.9404 -9.68801 17.8037
head 9.565 -3.92029 6.91323
rclavicle -8.96519e-014 -2.48481e-014
rhumerus -35.5348 18.5428 -98.832
rradius 133.34
rwrist 5.916
rhand -34.0946 -9.96916
rfingers 7.12502
rthumb -7.27088 -39.8242
lclavicle -8.96519e-014 -2.48481e-014
lhumerus -96.6526 -22.7434 104.949
lradius 84.4073
lwrist -9.68921
lhand -34.6126 9.08554
lfingers 7.12502
lthumb -7.77088 38.9227
rfemur 17.3172 -12.4719 22.3421
rtibia 23.0441
rfoot -148.198 1.29562
rtoes -19.1845
lfemur -49.6449 1.21521 -11.4996
ltibia 71.1849
lfoot -9.84184 -1.7416
ltoes -7.14146
131
root 6.52464 18.2341 -4.25511 -174.643 2.38146 -175.539
lowerback 2.99245 3.77036 -0.115118
upperback 0.145831 5.10521 1.95098
thorax -1.71121 2.57927 1.83154
lowerneck -16.3891 -6.13309 -12.3094
upperneck 17.3766 -10.0985 17.9429
head 9.81651 -4.11172 6.94606
rclavicle -6.11263e-014 -7.05686e-015
rhumerus -36.5812 20.4903 -98.8679
rradius 135.096
rwrist 7.07319
rhand -33.8517 -9.55803
rfingers 7.12502
rthumb -7.03643 -39.4211
lclavicle -6.11263e-014 -7.05686e-015
lhumerus -96.7566 -22.8588 104.33
lradius 85.376
lwrist -9.87739
lhand -35.0865 9.19782
lfingers 7.12502
lthumb -8.22827 39.0176
rfemur 18.905 -12.512 21.9313
rtibia 22.1833
rfoot -146.503 -2.46116
rtoes -21.78
lfemur -48.5244 0.341789 -11.9285
ltibia 65.1335
lfoot -10.6568 -2.49891
ltoes -7.44958
